<?xml version="1.0" encoding="UTF-8"?>
<svg id="Layer_1" xmlns="http://www.w3.org/2000/svg" version="1.1" viewBox="0 0 862.15 620.892">
  <!-- Generator: Adobe Illustrator 30.6.0, SVG Export Plug-In . SVG Version: 2.1.4 Build 109)  -->
  <path d="M210.628,155.237c23.207,24.271,50.045,44.333,79.443,61.127-3.703,5.807-5.646,12.602-3.293,19.157,11.119,30.983,114.924,28.789,147.395,27.942,5.141,11.547,19.91,10.604,32.453,8.484,16.755-2.832,32.401-8.418,48.186-14.449l13.689-6.15-14.197,4.943c-7.57,2.635-15.397,3.916-23.593,4.721-13.031,1.28-25.568-.205-37.782-4.604l-2.259-15.12c-38.596,1.552-76.26,1.109-114.172-2.866-8.734-.916-22.397-3.626-24.659-9.419-1.89-4.842,9.103-12.37,16.661-15.696-31.735-18.109-66.957-37.186-92.974-61.792-15.356-14.524-30.025-31.368-32.538-52.65-.839-7.107,2.747-12.228,9.707-14.084,11.867-3.164,24.206-2.347,36.342.736,41.428,10.525,85.421,42.908,118.945,69.417l16.495,13.044c-4.03-12.798-12.366-31.628-10.153-42.142.843-4.004,4.302-6.208,8.323-5.141,12.91,3.424,37.204,25.946,48.726,37.105,13.508,13.083,25.905,26.283,39.119,40.485.811-7.891,1.814-15.506,5.344-22.651,8.955-18.126,31.949-6.591,46.668,4.312,13.393,9.92,25.29,20.958,36.928,33.112-27.806,4.898-54.829,6.171-82.416,3.359-19.197-1.957-37.432-4.86-56.109-9.551-52.827-13.266-101.058-37.328-145.348-69.132,14.866,14.794,31.795,26.501,49.508,37.487,53.917,33.441,121.697,56.082,185.372,58.048,23.831.736,46.614-2.182,69.424-9.193,40.891-12.568,79.09-32.508,112.398-59.093,5.691-4.542,11.369-10.475,8.733-15.648-1.945-3.819-6.942-3.777-7.706-5.28-.966-1.9,2.651-8.931-5.439-11.26,6.896-23.044,18.747-52.372,34.945-68.934,3.125-3.195,6.679-5.584,11.055-6.873,1.033,4.261,4.084,6.394,7.375,6.657,4.069.326,7.264-2.653,8.035-5.96.96-4.118-1.407-7.599-4.719-9.046-3.73-1.208-7.936-.328-9.868,3.708-6.062,1.813-10.989,5.574-15.415,10.233-16.228,18.847-25.961,45.807-32.866,69.79-.577.801-3.135.753-3.953.218,4.148-23.647,9.583-46.481,16.944-69.329,5.404-16.774,14.116-39.71,26.25-51.393,3.811-3.669,9.661-7.119,14.876-5.984.197,3.54.99,7.91,5.087,9.13,3.305.984,7.143.118,9.222-3.215,1.908-3.057,1.561-7.249-1.435-9.864-2.621-2.533-7.19-2.664-10.526.14-6.084-.727-11.733.722-16.576,4.458-11.592,9.076-19.27,26.051-24.331,40.334-9.967,28.129-16.39,56.859-21.259,86.278-1.958.637-3.426,1.068-5.651.979,4.214-21.459,12.01-49.262,3.984-68.833-4.042-9.857-13.299-16.738-24.048-15.296-2.929.393-7.381,12.859-14.151,9.223l-10.212-8.652c-4.346-3.682-9.456-5.886-15.206-5.884-6.855.002-12.303,4.235-13.2,11.104-1.727,13.221,7.026,31.054,15.696,41.657l30.841,37.716-19.752-16.149c-11.834-13.351-29.567-20.816-47-15.217-8.711,2.798-13.605,10.881-12.331,19.826,1.163,8.168,5.103,15.213,10.735,21.299,18.714,20.221,55.642,18.985,82.242,12.88-3.139,4.835-7.131,8.561-11.403,12.332l-23.653,15.865c-13.472,7.502-27.22,13.861-41.705,19.31-15.496-15.39-30.928-29.455-48.204-41.994-10.754-7.806-21.884-13.882-34.311-18.195-16.18-5.615-33.448-4.519-41.986,10.514-13.438-15.041-27.229-28.439-42.903-40.331l-16.701-10.731c-6.165-3.255-12.442-5.505-19.281-6.525-12-1.79-22.785,4.601-26.54,16.555-17.128-11.241-33.86-21.504-51.74-30.991-31.08-16.491-85.04-37.777-113.119-12.753-6.858,6.112-10.257,13.902-9.953,23.102.77,23.316,13.479,44.545,29.487,61.287Z" fill="#202021"/>
  <path d="M782.818,554.204c-82.19,25.031-183.52,45.378-269.27,52.515-32.919,2.74-65.029,4.061-97.934,3.655-42.923-.529-84.907-4.956-126.736-14.335-16.129-3.616-31.022-8.188-46.531-13.646-25.041-8.812-48.296-20.494-70.315-35.194-3.815-2.547-8.729-.262-10.741,2.871-2.077,3.235-2.019,8.363,1.644,10.74,27.472,17.823,57.127,30.56,88.583,39.789,158.045,46.367,377.023,5.501,532.102-44.696,1.094-.354,1.06-1.16.836-1.451-.307-.4-.662-.546-1.638-.248Z" fill="#202021"/>
  <path d="M148.252,406.508c1.545-20.629-6.904-39.293-23.353-51.806-10.074-7.663-20.984-13.487-33.025-17.765l-23.006-8.174c-14.579-5.18-29.066-16.964-22.99-31.382,6.727-15.963,36.959-19.817,53.84-4.802l14.5,12.896c2.134,1.898,6.07-.746,7.889-2.594,6.539-6.64,10.997-14.943,14.218-23.718,3.111-8.477-11.02-17.312-20.127-21.436-19.124-8.66-40.38-11.364-61.127-7.329-30.957,6.02-50.924,31.995-48.043,63.346,1.361,14.814,8.518,27.828,20.284,36.817,9.886,7.553,20.673,12.93,32.403,16.997l23.128,8.019c14.623,5.07,26.804,16.348,22.965,31.289-1.407,5.474-5.762,10.41-11.74,13.319-11.653,5.672-24.755,6.305-37.536,3.792-38.089-7.491-36.919-49.367-40.564-50.322-.611-.16-1.739.288-2.409.931-16.281,15.638-17.599,43.971-5.564,62.944,19.908,31.382,67.13,37.989,101.072,23.869,23.127-9.621,37.37-30.648,39.186-54.892Z" fill="#202021"/>
  <path d="M286.267,473.918l31.067-.129c7.064-.029,9.515-20.216,10.225-30.256,1.78-25.157,2.717-49.916,1.799-75.195-.743-20.448-6.018-47.77-25.394-55.748-9.494-3.91-20.037-2.594-29.017,1.788l-12.365,6.033c-1.423.694-3.241.393-4.299-.508-3.921-3.342,3.298-12.407-.126-15.714-.687-.663-2.086-1.54-3.576-1.563l-20.808-.316c-6.971-.106-12.288,3.823-14.511,10.595-3.543,10.793-4.944,22.024-5.598,33.722-1.585,28.384-1.872,56.297-1.476,84.746.164,11.772.725,42.103,7.319,42.193l30.971.423c2.528.035,4.027-2.234,3.671-4.607-3.23-21.553-6.07-42.734-7.098-64.564-.87-18.476,1.055-43.853,13.503-56.821,5.594-5.827,13.738-8.683,21.372-5.806,9.87,3.72,12.548,19.34,12.875,30.766.933,32.607-3.506,64.708-12.823,95.82-.83,2.77,1.767,5.151,4.289,5.14Z" fill="#202021"/>
  <path d="M162.079,461.226c.892,3.043,3.349,4.828,6.513,4.813l29.481-.143c3.768-.018,6.273-3.652,5.527-7.299-5.096-24.935-7.711-49.539-9.093-75.081-1.378-25.464-.737-49.999,2.501-75.205.203-1.58-.21-3.482-.999-4.415-.649-.767-2.494-1.365-3.993-1.287-8.534.442-16.614.123-25.164.102-5.994-.014-7.239,22.069-7.371,32.172l-.83,63.786,1.171,47.942c.124,5.064.872,9.888,2.257,14.616Z" fill="#202021"/>
  <path d="M174.049,282.165c7.549,2.121,16.132,1.538,22.357-4.102,4.545-4.117,5.795-10.083,4.525-16.123-2.445-11.631-18.12-17.128-30.199-10.736-6.447,3.412-9.905,9.821-9,16.924.83,6.514,5.328,12.073,12.316,14.037Z" fill="#202021"/>
  <path d="M569.94,448.262l2.4-41.244c.412-18.665,2.512-102.426-11.063-102.39l-27.718.072c-1.594.004-3.446.72-4.084,1.701-.647.994-.823,2.528-.544,3.985,6.275,32.785,16.554,91.332-.513,118.391-4.922,7.804-14.034,11.838-22.948,9.058-11.225-3.501-15.012-19.764-15.995-31.955-2.604-32.308,1.355-64.568,10.818-95.526.462-1.512.229-3.085-.417-3.994-.516-.726-1.825-1.845-3.249-1.834l-30.021.226c-4.366.033-7.41,14.236-8.411,22.007-4.493,34.905-9.076,100.916,8.246,129.591,9.77,16.174,30.668,21.171,46.127,10.52l12.52-8.626c1.77-1.219,4.591-.514,5.937.743,2.641,2.469-1.171,10.105,5.611,11.593,6.572,1.442,13.415,1.999,20.07,1.147,4.679-.599,7.585-3.527,9.372-7.635,2.179-5.012,3.539-10.257,3.864-15.829Z" fill="#202021"/>
  <path d="M633.448,453.611l-5.127-29.23c-5.302-43.321-6.083-86.478-1.839-129.914,1.583-16.2,4.248-31.315,7.902-47.03.768-3.3-1.998-6.364-5.388-6.326l-29.564.327c-5.938.066-8.258,30.873-8.813,42.142-2.24,45.54-2.38,90.648-.909,136.289.381,11.832,1.502,22.738,3.781,33.954.645,3.171,2.701,5.086,5.844,5.072l30.024-.131c3.118-.014,4.51-2.753,4.09-5.151Z" fill="#202021"/>
  <path d="M861.302,319.219c-1.761-7.655-6.694-13.405-12.706-16.216-7.536-3.523-14.838-2.862-21.758.898l-15.075,10.703c-2.285,1.622-5.28,2.386-7.493,1.249-5.566-2.86-.922-11.824-8.781-11.73l-23.579.284c-5.729.069-6.636,6.737-6.638,14.496l-.015,63.816,1.015,59.43c.154,9.013,1.853,25.588,7.99,25.589l29.49.004c3.123,0,5.678-2.792,4.908-6.084-6.765-28.916-10.121-58.279-7.995-87.931.668-9.324,2.38-17.691,6.332-25.711,4.556-9.246,15.031-13.575,24.206-8.611,6.949,3.76,5.9,13.415,8.383,14.791,4.777,2.646,27.164-11.294,21.716-34.976Z" fill="#202021"/>
  <path d="M754.551,482.234c-2.28-18.32-2.53-36.17-3.04-54.65l-1.12-40.27-2.5-21.64c-3.34-17.68-15.51-31.36-32.53-37.49-16.89-6.08-35.65-5.34-52.01,2.19-12.23,5.64-20.57,18.35-16.96,31.23,2.78,9.91,12.51,16.87,17.5,14.64,3.16-1.4,3.63-13.06,12.73-18.14,9.27-5.18,20.84-4.4,29.66,1.23,6.51,4.15,10.03,11.54,7.98,18.97-.94,3.44-4.53,5.23-7.86,5.81-20.16,3.49-36.77,11.07-50.7,26.08-12.5,13.46-17.53,31.93-11.78,50,3.48,10.94,11.06,18.66,21.08,23.46,9.51,4.56,19.67,7.44,30.34,7.42l39.74-.05,14.68-1.91c3.37-.43,5.22-3.38,4.79-6.88ZM717.051,450.554c-.58,5.22-3.55,8.75-8.12,9.82-8.61,2-17.63.22-24.57-5.28-7.41-5.89-9.92-15.32-6.43-24.36,4.67-12.13,17.02-20.25,30.03-20.15,5.01.04,8.49,3.22,9.03,8.12,1.14,10.41,1.28,21,.06,31.85Z" fill="#202021"/>
  <path d="M502.72,533.474c1.546-10.83,1.604-22.243-.354-33.112-7.421-3.555-10.111,3.079-14.295,10.223-2.26-3.696-3.491-7.506-6.472-10.072-1.843-1.586-5.558-1.079-7.793.022-1.578,11.094-1.669,21.982-.404,32.904,2.717.454,5.121.533,7.178-.163-1.585-8.37-3.656-16.51-1.573-25.289,5.938,6.469,5.288,18.364,9.028,18.144,2.606-.153,2.421-7.697,5.957-15.476.447-.982,1.999-2.373,2.757-1.503.936,8.635-.172,16.1-1.925,24.303,2.674.429,4.972.481,7.898.019Z" fill="#202021"/>
  <path d="M646.648,533.126c1.046-6.58,1.234-13.218.013-19.77-.772-4.143-4.854-7.202-8.767-5.515-1.421.612-3.233,1.962-4.804.938-6.737-4.391-10.707,4.321-9.674-1.711-.873-.709-5.624-1.02-6.035.579-1.444,8.772-.557,17.233-.263,25.824,2.354.406,4.042.404,6.379-.003-1.368-8.423-2.188-21.316,2.838-20.889,5.001.425,3.197,12.175,1.802,20.635,2.111.811,4.403.763,6.426.134l.346-17.648c.04-2.014.969-3.37,2.837-3.343,5.34.075,4.322,12.271,2.552,20.822,2.012.936,4.219.895,6.349-.052Z" fill="#202021"/>
  <path d="M693.796,505.376c3.2-1.232,5.906-.475,9.011,1.043,1.694-1.97,2.804-4.021,3.037-6.766l-18.29.141c-3.99.031-3.366,24.008-2.082,33.689,2.717.452,5.051.505,7.482-.155-1.692-7.179-3.045-14.175,2.049-15.066,1.864-.326,3.3.021,5.217.454.896-2.352,1.938-4.868,1.351-7.236l-9.497,1.082c-2.099-.716-.403-6.37,1.721-7.187Z" fill="#202021"/>
  <path d="M595.727,505.496c1.926-.665,3.75,2.099,5.124,2.571,1.935-.385,3.33-5.026,2.107-6.422-7.069-3.458-15.566-3.133-22.846-.83-1.432,3.078-2.519,6.09-1.677,9.292,3.482-2.434,5.806-4.795,9.957-4.626-1.748,9.796-3.028,18.902-1.082,27.958,2.737.473,4.906.575,7.802-.021-2.419-9.281-3.356-26.552.615-27.922Z" fill="#202021"/>
  <path d="M777.782,533.653c.005-3.15-.724-5.941-2.137-8.935l-4.341,2.95c-1.795,1.22-3.708.794-4.94.068-5.121-3.016-1.204-18.227,2.179-27.467-2.501-.848-5.087-.798-7.653-.092-2.253,11.162-3.778,22.146-2.607,33.451l19.5.023Z" fill="#202021"/>
  <path d="M814.758,507.929c.411,6.253.094,12.232-2.984,17.336-1.628,2.7-5.656-7.627-4.46-17.482-2.132-.668-4.057-.689-6.253.022-.225,9.204,1.844,20.496,8.982,26.498,8.312-4.895,10.826-16.713,10.224-26.483-1.905-.74-3.756-.805-5.509.108Z" fill="#202021"/>
  <path d="M737.955,512.932c1.386-.124,2.197,1.789,2.943,2.459,1.854.102,3.218-2.441,3.289-3.957.078-1.666-.459-3.725-2.423-4.298-2.417-.705-4.569.871-6.567,2.558-.744-1.441-1.56-2.167-2.545-2.363-.878-.175-3.852-.125-3.837.936l.348,24.891c2.171.94,4.649,1.026,6.533-.007-1.584-9.007-2.635-19.779,2.259-20.218Z" fill="#202021"/>
  <path d="M538.949,512.887c1.257-.016,2.369,1.047,2.788,2.78,1.978-.566,2.897-2.058,3.293-3.759.303-1.305.081-3.395-1.439-4.269-2.551-1.468-5.111.151-7.203,2.124-.891-1.708-1.732-2.302-2.821-2.454-.986-.137-3.707-.073-3.682,1.132l.528,25.035c2.284.445,4.219.455,6.289-.05-1.495-8.59-2.441-20.479,2.246-20.538Z" fill="#202021"/>
  <path d="M606.183,533.189c2.291.813,4.801,1.017,7.029-.164-1.711-9.033-1.994-16.905-1.151-25.177-1.548-.803-4.865-.9-5.567.359l-.311,24.982Z" fill="#202021"/>
  <path d="M609.607,504.741c1.686,0,3.053-1.367,3.053-3.053s-1.367-3.053-3.053-3.053-3.053,1.367-3.053,3.053,1.367,3.053,3.053,3.053Z" fill="#202021"/>
  <path d="M564.991,515.204c.36-2.84-.74-5.71-3.49-7.25-4.48-2.5-9.9-.85-12.9,3.47-3.41,4.91-3.96,11.63-1.62,17.13,1.73,4.08,5.59,5.95,9.83,5.64,2.91-.2,5.02-1.32,6.54-3.24,1.59-2.02,2.52-4.39,1.04-7.47-1.65,3.21-3.33,4.79-5.92,5.05-2.08.21-6.33-.15-6.33-3.04-.01-4.33,11.9-2.84,12.85-10.29ZM551.601,518.604c-.73-3.2,1.11-6.14,4.5-6.76,1.6-.3,4.57,1.31,3.42,3.37-1.35,2.42-5.37,2.67-7.92,3.39Z" fill="#202021"/>
  <path d="M515.651,506.894c-9.17,1.17-11.47,14.43-7.17,22.11,1.87,3.33,5.05,5.27,8.41,5.17,3.37-.09,6.59-1.89,8.25-5.3,2.92-6.02,2.75-13.46-1.29-18.9-1.96-2.63-5.22-3.47-8.2-3.08ZM516.911,527.394c-1.89.06-3.6-1.01-4.39-3.06-2.04-5.29-.39-11.9,3.72-12.37,1.83-.21,3.62.59,4.62,2.57,2.55,5.05.52,12.71-3.95,12.86Z" fill="#202021"/>
  <path d="M841.501,513.924c-.14-3.81-2.8-6.57-6.8-7.03-4.5-.51-8.47,1.55-10.51,5.68-2.29,4.63-2.66,10.02-1.1,14.99,1.45,4.63,5.59,7,10.42,6.63,5.22-.4,9.44-4.88,7.5-10.32-2.01,3.19-3.75,4.63-6.53,4.76-1.95.09-5.88-.48-5.84-3.31.06-4.13,13.2-2.6,12.86-11.4ZM827.991,518.624c-.74-2.42.81-5.6,3.24-6.51,1.34-.51,2.58-.18,3.61.19.72.26,1.98,1.73,1.18,3.02-1.37,2.21-5.18,2.66-8.03,3.3Z" fill="#202021"/>
  <path d="M716.041,534.224c3.49-.06,6.88-2.23,8.5-6.25,2.11-5.21,1.88-11.19-.57-15.95-1.64-3.2-4.84-5.23-7.93-5.19-3.1.04-6.29,1.33-8.14,4.26-3.17,5.04-3.34,11.65-.99,17.08,1.68,3.9,5.2,6.11,9.13,6.05ZM715.351,511.964c2.08-.15,3.91,1.01,4.67,3.27,1.93,5.72.06,11.81-3.99,12.13-1.73.14-3.34-.72-4.24-2.48-2.52-4.91-1.08-12.57,3.56-12.92Z" fill="#202021"/>
  <path d="M669.281,515.944c.58-2.77-.23-5.77-2.64-7.48-4.89-3.47-11.61-1.43-14.36,3.99-2.29,4.51-2.72,9.91-1.37,14.78,1.44,5.21,6.35,7.79,11.53,6.83,5.01-.92,8.34-5.44,6.33-10.6-1.68,3.46-3.33,4.76-6.13,5.12-2.16.28-6.53-.56-5.97-3.62,2.01-3.8,11.32-2.87,12.61-9.02ZM655.921,518.604c-.61-3.4,1.51-6.52,4.95-6.79,1.65-.13,4.26,1.45,3,3.45-1.58,2.5-5.49,2.86-7.95,3.34Z" fill="#202021"/>
  <path d="M790.361,506.834c-3.37-.33-6.82.99-8.88,4.16-3.67,5.65-3.6,13.62.17,19.2,1.93,2.86,5.01,4.19,8.1,4.05,7.99-.36,12.3-11.66,8.1-21.57-1.42-3.37-4.35-5.54-7.49-5.84ZM789.121,527.554c-4.25-.26-6.54-7.02-3.95-12.98.77-1.78,2.33-2.61,3.84-2.63,1.6-.02,3.31.53,4.15,2.28,2.98,6.22.29,13.59-4.04,13.33Z" fill="#202021"/>
  <path d="M163.221,536.664c.07-1.78-1.35-2.73-2.81-3.81-4.15-3.04-1.57-12.41-10.5-12.29-2.85.04-4.87,1.61-7.43,3.54,5.25-9.56-4.78-9.28-7.6-17.48-.79-2.28-1.72-4.5-4.02-6.75-9.47,11.47-6.62,25.67-.42,37.58-1.98-.05-3.19.25-4.05-.46h0s.002-.003.003-.005c-1.239-2.56-4.458-5.905-7.847-3.727,1.896.963,4.37,0,4.996,2.5-2.201-.538-4.456-2.029-6.168.29,2.777-.006,5.552.189,7.591,1.657.2.219.498.478.896.776l1.68,1.78c.8.84,2.28-.25,2.93-.14l7.18,1.19c2.7.45,4.84,7.07,6.84,7.15.61.03,1.34-.57,1.3-1.62-.17-4.19-3.68-6.17-7.25-7.29l12.58,1.76c6.22.88,11.93-.28,12.1-4.65ZM135.301,536.994l3.3-6.1c.17,2.31-.35,4.66-3.3,6.1Z" fill="#202021"/>
  <path d="M336.881,545.674c11.82,10.7,26.67,15.87,42.95,15.01,36.98-1.96,77.79-25.91,80.64-65.41,1.01-13.91-5.6-26.2-17.68-32.77-5.83-3.16-11.7-4.83-18.82-6.95,25.03-17.36,27.17-48.22,12.92-73.69-9.39-16.78-22.23-17.2-22.34-25.33-.04-2.88,1.57-5.49,4.25-7l10.65-5.97c1.72-.97,2.82-2.17,2.89-3.81.22-5.56-14.22-12.84-22.95-14.76-4.96-1.09-8.73,1.32-10.3,5.76l-5.96,16.85c-1.15,3.24-3.17,8.58-7.22,9.32-13.2,2.43-25.48,7.12-35.66,16.09-17.03,15.01-19.72,34.77-12.24,55.98,4.59,13.03,13.07,23.54,25.47,30.39-25.75,10.74-40.93,28.39-40.26,56.32.12,11.87,5,22.13,13.66,29.97ZM371.471,388.854c5.68-5.13,13.02-7.98,21.09-6.61,6.45,1.09,13.09,5.32,16.78,11.94,8.01,14.4,4.95,29.54-8.88,36.62-8.46,4.33-18.01,3.85-25.34-1.67-6.02-4.53-9.25-11.61-10.84-18.79-1.82-8.23,1.06-15.94,7.19-21.49ZM370.101,483.874c16.54-11.12,44.27-15.67,58.76-3.73,7.72,6.37,10.08,16.15,5.68,25.25-8.25,17.08-33.7,31.81-53.59,27.31-7.88-1.78-15.44-6.02-19.59-12.83-7.81-12.84-3.5-27.78,8.74-36Z" fill="#fec336"/>
  <path d="M399.911,406.594c3.7,0,6.7-3,6.7-6.69s-3-6.7-6.7-6.7-6.69,3-6.69,6.7,3,6.69,6.69,6.69Z" fill="#fec336"/>
</svg>