<?xml version="1.0" encoding="UTF-8"?>
<svg id="Layer_1" xmlns="http://www.w3.org/2000/svg" version="1.1" viewBox="0 0 574.88 273.255">
  <!-- Generator: Adobe Illustrator 30.6.0, SVG Export Plug-In . SVG Version: 2.1.4 Build 109)  -->
  <path d="M29.509,155.235c23.207,24.271,50.045,44.333,79.443,61.127-3.703,5.807-5.646,12.602-3.293,19.157,11.119,30.983,114.924,28.789,147.395,27.942,5.141,11.547,19.91,10.604,32.453,8.484,16.755-2.832,32.401-8.418,48.186-14.449l13.689-6.15-14.197,4.943c-7.57,2.635-15.397,3.916-23.593,4.721-13.031,1.28-25.568-.205-37.782-4.604l-2.259-15.12c-38.596,1.552-76.26,1.109-114.172-2.866-8.734-.916-22.397-3.626-24.659-9.419-1.89-4.842,9.103-12.37,16.661-15.696-31.735-18.109-66.957-37.186-92.974-61.792-15.356-14.524-30.025-31.368-32.538-52.65-.839-7.107,2.747-12.228,9.707-14.084,11.867-3.164,24.206-2.347,36.342.736,41.428,10.525,85.421,42.908,118.945,69.417l16.495,13.044c-4.03-12.798-12.366-31.628-10.153-42.142.843-4.004,4.302-6.208,8.323-5.141,12.91,3.424,37.204,25.946,48.726,37.105,13.508,13.083,25.905,26.283,39.119,40.485.811-7.891,1.814-15.506,5.344-22.651,8.955-18.126,31.949-6.591,46.668,4.312,13.393,9.92,25.29,20.958,36.928,33.112-27.806,4.898-54.829,6.171-82.416,3.359-19.197-1.957-37.432-4.86-56.109-9.551-52.827-13.266-101.058-37.328-145.348-69.132,14.866,14.794,31.795,26.501,49.508,37.487,53.917,33.441,121.697,56.082,185.372,58.048,23.831.736,46.614-2.182,69.424-9.193,40.891-12.568,79.09-32.508,112.398-59.093,5.691-4.542,11.369-10.475,8.733-15.648-1.945-3.819-6.942-3.777-7.706-5.28-.966-1.9,2.651-8.931-5.439-11.26,6.896-23.044,18.747-52.372,34.945-68.934,3.125-3.195,6.679-5.584,11.055-6.873,1.033,4.261,4.084,6.394,7.375,6.657,4.069.326,7.264-2.653,8.035-5.96.96-4.118-1.407-7.599-4.719-9.046-3.73-1.208-7.936-.328-9.868,3.708-6.062,1.813-10.989,5.574-15.415,10.233-16.228,18.847-25.961,45.807-32.866,69.79-.577.801-3.135.753-3.953.218,4.148-23.647,9.583-46.481,16.944-69.329,5.404-16.774,14.116-39.71,26.25-51.393,3.811-3.669,9.661-7.119,14.876-5.984.197,3.54.99,7.91,5.087,9.13,3.305.984,7.143.118,9.222-3.215,1.908-3.057,1.561-7.249-1.435-9.864-2.621-2.533-7.19-2.664-10.526.14-6.084-.727-11.733.722-16.576,4.458-11.592,9.076-19.27,26.051-24.331,40.334-9.967,28.129-16.39,56.859-21.259,86.278-1.958.637-3.426,1.068-5.651.979,4.214-21.459,12.01-49.262,3.984-68.833-4.042-9.857-13.299-16.738-24.048-15.296-2.929.393-7.381,12.859-14.151,9.223l-10.212-8.652c-4.346-3.682-9.456-5.886-15.206-5.884-6.855.002-12.303,4.235-13.2,11.104-1.727,13.221,7.026,31.054,15.696,41.657l30.841,37.716-19.752-16.149c-11.834-13.351-29.567-20.816-47-15.217-8.711,2.798-13.605,10.881-12.331,19.826,1.163,8.168,5.103,15.213,10.735,21.299,18.714,20.221,55.642,18.985,82.242,12.88-3.139,4.835-7.131,8.561-11.403,12.332l-23.653,15.865c-13.472,7.502-27.22,13.861-41.705,19.31-15.496-15.39-30.928-29.455-48.204-41.994-10.754-7.806-21.884-13.882-34.311-18.195-16.18-5.615-33.448-4.519-41.986,10.514-13.438-15.041-27.229-28.439-42.903-40.331l-16.701-10.731c-6.165-3.255-12.442-5.505-19.281-6.525-12-1.79-22.785,4.601-26.54,16.555-17.128-11.241-33.86-21.504-51.74-30.991-31.08-16.491-85.04-37.777-113.119-12.753C3.114,76.962-.285,84.752.019,93.952c.77,23.316,13.479,44.545,29.487,61.287l.003-.004Z" fill="#202021"/>
</svg>